# Blender v2.90.1 OBJ File: 'Start.blend'
# www.blender.org
mtllib Start.mtl
o Cube_Cube.001
v -7.760982 -4.072404 71.469635
v -7.760982 -3.233967 71.469635
v -7.760982 -4.072404 -4.889011
v -7.760982 -3.233967 -4.889011
v 8.322434 -4.072404 71.469635
v 8.322434 -3.233967 71.469635
v 8.322434 -4.072404 -4.889011
v 8.322434 -3.233967 -4.889011
vt 0.625000 0.000000
vt 0.375000 0.250000
vt 0.375000 0.000000
vt 0.625000 0.250000
vt 0.375000 0.500000
vt 0.625000 0.500000
vt 0.375000 0.750000
vt 0.625000 0.750000
vt 0.375000 1.000000
vt 0.125000 0.750000
vt 0.125000 0.500000
vt 0.875000 0.500000
vt 0.625000 1.000000
vt 0.875000 0.750000
vn -1.0000 0.0000 0.0000
vn 0.0000 0.0000 -1.0000
vn 1.0000 0.0000 0.0000
vn 0.0000 0.0000 1.0000
vn 0.0000 -1.0000 0.0000
vn 0.0000 1.0000 0.0000
usemtl None
s off
f 2/1/1 3/2/1 1/3/1
f 4/4/2 7/5/2 3/2/2
f 8/6/3 5/7/3 7/5/3
f 6/8/4 1/9/4 5/7/4
f 7/5/5 1/10/5 3/11/5
f 4/12/6 6/8/6 8/6/6
f 2/1/1 4/4/1 3/2/1
f 4/4/2 8/6/2 7/5/2
f 8/6/3 6/8/3 5/7/3
f 6/8/4 2/13/4 1/9/4
f 7/5/5 5/7/5 1/10/5
f 4/12/6 2/14/6 6/8/6
o Cube.001_Cube.055
v 7.893916 -3.172463 4.942608
v 7.893916 -3.286758 4.942608
v 7.893916 -3.172463 7.236410
v 7.893916 -3.286758 7.236410
v 5.565387 -3.172463 4.942608
v 5.565387 -3.286758 4.942608
v 5.565387 -3.172463 7.236410
v 5.565387 -3.286758 7.236410
vt 0.625000 0.000000
vt 0.375000 0.000000
vt 0.375000 0.250000
vt 0.625000 0.250000
vt 0.375000 0.500000
vt 0.625000 0.500000
vt 0.375000 0.750000
vt 0.625000 0.750000
vt 0.375000 1.000000
vt 0.125000 0.500000
vt 0.125000 0.750000
vt 0.875000 0.500000
vt 0.625000 1.000000
vt 0.875000 0.750000
vn 1.0000 0.0000 0.0000
vn 0.0000 0.0000 1.0000
vn -1.0000 0.0000 0.0000
vn 0.0000 0.0000 -1.0000
vn 0.0000 1.0000 0.0000
vn 0.0000 -1.0000 0.0000
usemtl None
s off
f 10/15/7 9/16/7 11/17/7
f 12/18/8 11/17/8 15/19/8
f 16/20/9 15/19/9 13/21/9
f 14/22/10 13/21/10 9/23/10
f 15/19/11 11/24/11 9/25/11
f 12/26/12 16/20/12 14/22/12
f 10/15/7 11/17/7 12/18/7
f 12/18/8 15/19/8 16/20/8
f 16/20/9 13/21/9 14/22/9
f 14/22/10 9/23/10 10/27/10
f 15/19/11 9/25/11 13/21/11
f 12/26/12 14/22/12 10/28/12
o Cube.011_Cube.056
v 5.269218 -3.172463 7.562692
v 5.269218 -3.286758 7.562692
v 5.269218 -3.172463 9.856494
v 5.269218 -3.286758 9.856494
v 2.940690 -3.172463 7.562692
v 2.940690 -3.286758 7.562692
v 2.940690 -3.172463 9.856494
v 2.940690 -3.286758 9.856494
vt 0.625000 0.000000
vt 0.375000 0.000000
vt 0.375000 0.250000
vt 0.625000 0.250000
vt 0.375000 0.500000
vt 0.625000 0.500000
vt 0.375000 0.750000
vt 0.625000 0.750000
vt 0.375000 1.000000
vt 0.125000 0.500000
vt 0.125000 0.750000
vt 0.875000 0.500000
vt 0.625000 1.000000
vt 0.875000 0.750000
vn 1.0000 0.0000 0.0000
vn 0.0000 0.0000 1.0000
vn -1.0000 0.0000 0.0000
vn 0.0000 0.0000 -1.0000
vn 0.0000 1.0000 0.0000
vn 0.0000 -1.0000 0.0000
usemtl None
s off
f 18/29/13 17/30/13 19/31/13
f 20/32/14 19/31/14 23/33/14
f 24/34/15 23/33/15 21/35/15
f 22/36/16 21/35/16 17/37/16
f 23/33/17 19/38/17 17/39/17
f 20/40/18 24/34/18 22/36/18
f 18/29/13 19/31/13 20/32/13
f 20/32/14 23/33/14 24/34/14
f 24/34/15 21/35/15 22/36/15
f 22/36/16 17/37/16 18/41/16
f 23/33/17 17/39/17 21/35/17
f 20/40/18 22/36/18 18/42/18
o Cube.013_Cube.058
v 2.711969 -3.172463 4.942608
v 2.711969 -3.286758 4.942608
v 2.711969 -3.172463 7.236410
v 2.711969 -3.286758 7.236410
v 0.383440 -3.172463 4.942608
v 0.383440 -3.286758 4.942608
v 0.383440 -3.172463 7.236410
v 0.383440 -3.286758 7.236410
vt 0.625000 0.000000
vt 0.375000 0.000000
vt 0.375000 0.250000
vt 0.625000 0.250000
vt 0.375000 0.500000
vt 0.625000 0.500000
vt 0.375000 0.750000
vt 0.625000 0.750000
vt 0.375000 1.000000
vt 0.125000 0.500000
vt 0.125000 0.750000
vt 0.875000 0.500000
vt 0.625000 1.000000
vt 0.875000 0.750000
vn 1.0000 0.0000 0.0000
vn 0.0000 0.0000 1.0000
vn -1.0000 0.0000 0.0000
vn 0.0000 0.0000 -1.0000
vn 0.0000 1.0000 0.0000
vn 0.0000 -1.0000 0.0000
usemtl None
s off
f 26/43/19 25/44/19 27/45/19
f 28/46/20 27/45/20 31/47/20
f 32/48/21 31/47/21 29/49/21
f 30/50/22 29/49/22 25/51/22
f 31/47/23 27/52/23 25/53/23
f 28/54/24 32/48/24 30/50/24
f 26/43/19 27/45/19 28/46/19
f 28/46/20 31/47/20 32/48/20
f 32/48/21 29/49/21 30/50/21
f 30/50/22 25/51/22 26/55/22
f 31/47/23 25/53/23 29/49/23
f 28/54/24 30/50/24 26/56/24
o Cube.012_Cube.057
v 0.087271 -3.172463 7.562692
v 0.087271 -3.286758 7.562692
v 0.087271 -3.172463 9.856494
v 0.087271 -3.286758 9.856494
v -2.241257 -3.172463 7.562692
v -2.241257 -3.286758 7.562692
v -2.241257 -3.172463 9.856494
v -2.241257 -3.286758 9.856494
vt 0.625000 0.000000
vt 0.375000 0.000000
vt 0.375000 0.250000
vt 0.625000 0.250000
vt 0.375000 0.500000
vt 0.625000 0.500000
vt 0.375000 0.750000
vt 0.625000 0.750000
vt 0.375000 1.000000
vt 0.125000 0.500000
vt 0.125000 0.750000
vt 0.875000 0.500000
vt 0.625000 1.000000
vt 0.875000 0.750000
vn 1.0000 0.0000 0.0000
vn 0.0000 0.0000 1.0000
vn -1.0000 0.0000 0.0000
vn 0.0000 0.0000 -1.0000
vn 0.0000 1.0000 0.0000
vn 0.0000 -1.0000 0.0000
usemtl None
s off
f 34/57/25 33/58/25 35/59/25
f 36/60/26 35/59/26 39/61/26
f 40/62/27 39/61/27 37/63/27
f 38/64/28 37/63/28 33/65/28
f 39/61/29 35/66/29 33/67/29
f 36/68/30 40/62/30 38/64/30
f 34/57/25 35/59/25 36/60/25
f 36/60/26 39/61/26 40/62/26
f 40/62/27 37/63/27 38/64/27
f 38/64/28 33/65/28 34/69/28
f 39/61/29 33/67/29 37/63/29
f 36/68/30 38/64/30 34/70/30
o Cube.015_Cube.060
v -5.050891 -3.172463 7.562692
v -5.050891 -3.286758 7.562692
v -5.050891 -3.172463 9.856494
v -5.050891 -3.286758 9.856494
v -7.379419 -3.172463 7.562692
v -7.379419 -3.286758 7.562692
v -7.379419 -3.172463 9.856494
v -7.379419 -3.286758 9.856494
vt 0.625000 0.000000
vt 0.375000 0.000000
vt 0.375000 0.250000
vt 0.625000 0.250000
vt 0.375000 0.500000
vt 0.625000 0.500000
vt 0.375000 0.750000
vt 0.625000 0.750000
vt 0.375000 1.000000
vt 0.125000 0.500000
vt 0.125000 0.750000
vt 0.875000 0.500000
vt 0.625000 1.000000
vt 0.875000 0.750000
vn 1.0000 0.0000 0.0000
vn 0.0000 0.0000 1.0000
vn -1.0000 0.0000 0.0000
vn 0.0000 0.0000 -1.0000
vn 0.0000 1.0000 0.0000
vn 0.0000 -1.0000 0.0000
usemtl None
s off
f 42/71/31 41/72/31 43/73/31
f 44/74/32 43/73/32 47/75/32
f 48/76/33 47/75/33 45/77/33
f 46/78/34 45/77/34 41/79/34
f 47/75/35 43/80/35 41/81/35
f 44/82/36 48/76/36 46/78/36
f 42/71/31 43/73/31 44/74/31
f 44/74/32 47/75/32 48/76/32
f 48/76/33 45/77/33 46/78/33
f 46/78/34 41/79/34 42/83/34
f 47/75/35 41/81/35 45/77/35
f 44/82/36 46/78/36 42/84/36
o Cube.014_Cube.059
v -2.426194 -3.172463 4.942608
v -2.426194 -3.286758 4.942608
v -2.426194 -3.172463 7.236410
v -2.426194 -3.286758 7.236410
v -4.754722 -3.172463 4.942608
v -4.754722 -3.286758 4.942608
v -4.754722 -3.172463 7.236410
v -4.754722 -3.286758 7.236410
vt 0.625000 0.000000
vt 0.375000 0.000000
vt 0.375000 0.250000
vt 0.625000 0.250000
vt 0.375000 0.500000
vt 0.625000 0.500000
vt 0.375000 0.750000
vt 0.625000 0.750000
vt 0.375000 1.000000
vt 0.125000 0.500000
vt 0.125000 0.750000
vt 0.875000 0.500000
vt 0.625000 1.000000
vt 0.875000 0.750000
vn 1.0000 0.0000 0.0000
vn 0.0000 0.0000 1.0000
vn -1.0000 0.0000 0.0000
vn 0.0000 0.0000 -1.0000
vn 0.0000 1.0000 0.0000
vn 0.0000 -1.0000 0.0000
usemtl None
s off
f 50/85/37 49/86/37 51/87/37
f 52/88/38 51/87/38 55/89/38
f 56/90/39 55/89/39 53/91/39
f 54/92/40 53/91/40 49/93/40
f 55/89/41 51/94/41 49/95/41
f 52/96/42 56/90/42 54/92/42
f 50/85/37 51/87/37 52/88/37
f 52/88/38 55/89/38 56/90/38
f 56/90/39 53/91/39 54/92/39
f 54/92/40 49/93/40 50/97/40
f 55/89/41 49/95/41 53/91/41
f 52/96/42 54/92/42 50/98/42
o Cube.021_Cube.066
v 7.893916 -3.172463 10.197239
v 7.893916 -3.286758 10.197239
v 7.893916 -3.172463 12.491041
v 7.893916 -3.286758 12.491041
v 5.565387 -3.172463 10.197239
v 5.565387 -3.286758 10.197239
v 5.565387 -3.172463 12.491041
v 5.565387 -3.286758 12.491041
vt 0.625000 0.000000
vt 0.375000 0.000000
vt 0.375000 0.250000
vt 0.625000 0.250000
vt 0.375000 0.500000
vt 0.625000 0.500000
vt 0.375000 0.750000
vt 0.625000 0.750000
vt 0.375000 1.000000
vt 0.125000 0.500000
vt 0.125000 0.750000
vt 0.875000 0.500000
vt 0.625000 1.000000
vt 0.875000 0.750000
vn 1.0000 0.0000 0.0000
vn 0.0000 0.0000 1.0000
vn -1.0000 0.0000 0.0000
vn 0.0000 0.0000 -1.0000
vn 0.0000 1.0000 0.0000
vn 0.0000 -1.0000 0.0000
usemtl None
s off
f 58/99/43 57/100/43 59/101/43
f 60/102/44 59/101/44 63/103/44
f 64/104/45 63/103/45 61/105/45
f 62/106/46 61/105/46 57/107/46
f 63/103/47 59/108/47 57/109/47
f 60/110/48 64/104/48 62/106/48
f 58/99/43 59/101/43 60/102/43
f 60/102/44 63/103/44 64/104/44
f 64/104/45 61/105/45 62/106/45
f 62/106/46 57/107/46 58/111/46
f 63/103/47 57/109/47 61/105/47
f 60/110/48 62/106/48 58/112/48
o Cube.018_Cube.063
v 2.711969 -3.172463 10.197239
v 2.711969 -3.286758 10.197239
v 2.711969 -3.172463 12.491041
v 2.711969 -3.286758 12.491041
v 0.383440 -3.172463 10.197239
v 0.383440 -3.286758 10.197239
v 0.383440 -3.172463 12.491041
v 0.383440 -3.286758 12.491041
vt 0.625000 0.000000
vt 0.375000 0.000000
vt 0.375000 0.250000
vt 0.625000 0.250000
vt 0.375000 0.500000
vt 0.625000 0.500000
vt 0.375000 0.750000
vt 0.625000 0.750000
vt 0.375000 1.000000
vt 0.125000 0.500000
vt 0.125000 0.750000
vt 0.875000 0.500000
vt 0.625000 1.000000
vt 0.875000 0.750000
vn 1.0000 0.0000 0.0000
vn 0.0000 0.0000 1.0000
vn -1.0000 0.0000 0.0000
vn 0.0000 0.0000 -1.0000
vn 0.0000 1.0000 0.0000
vn 0.0000 -1.0000 0.0000
usemtl None
s off
f 66/113/49 65/114/49 67/115/49
f 68/116/50 67/115/50 71/117/50
f 72/118/51 71/117/51 69/119/51
f 70/120/52 69/119/52 65/121/52
f 71/117/53 67/122/53 65/123/53
f 68/124/54 72/118/54 70/120/54
f 66/113/49 67/115/49 68/116/49
f 68/116/50 71/117/50 72/118/50
f 72/118/51 69/119/51 70/120/51
f 70/120/52 65/121/52 66/125/52
f 71/117/53 65/123/53 69/119/53
f 68/124/54 70/120/54 66/126/54
o Cube.017_Cube.062
v -2.426194 -3.172463 10.197239
v -2.426194 -3.286758 10.197239
v -2.426194 -3.172463 12.491041
v -2.426194 -3.286758 12.491041
v -4.754722 -3.172463 10.197239
v -4.754722 -3.286758 10.197239
v -4.754722 -3.172463 12.491041
v -4.754722 -3.286758 12.491041
vt 0.625000 0.000000
vt 0.375000 0.000000
vt 0.375000 0.250000
vt 0.625000 0.250000
vt 0.375000 0.500000
vt 0.625000 0.500000
vt 0.375000 0.750000
vt 0.625000 0.750000
vt 0.375000 1.000000
vt 0.125000 0.500000
vt 0.125000 0.750000
vt 0.875000 0.500000
vt 0.625000 1.000000
vt 0.875000 0.750000
vn 1.0000 0.0000 0.0000
vn 0.0000 0.0000 1.0000
vn -1.0000 0.0000 0.0000
vn 0.0000 0.0000 -1.0000
vn 0.0000 1.0000 0.0000
vn 0.0000 -1.0000 0.0000
usemtl None
s off
f 74/127/55 73/128/55 75/129/55
f 76/130/56 75/129/56 79/131/56
f 80/132/57 79/131/57 77/133/57
f 78/134/58 77/133/58 73/135/58
f 79/131/59 75/136/59 73/137/59
f 76/138/60 80/132/60 78/134/60
f 74/127/55 75/129/55 76/130/55
f 76/130/56 79/131/56 80/132/56
f 80/132/57 77/133/57 78/134/57
f 78/134/58 73/135/58 74/139/58
f 79/131/59 73/137/59 77/133/59
f 76/138/60 78/134/60 74/140/60
